<svg xmlns="http://www.w3.org/2000/svg" version="1.1" xmlns:xlink="http://www.w3.org/1999/xlink" xmlns:svgjs="http://svgjs.dev/svgjs" width="100%" height="100%" viewBox="0 0 1000 600"><rect width="1000" height="600" x="0" y="0" fill="#5c65c0"/><g><circle r="166.66666666666666" cx="364.11135355631507" cy="386.3334898984298" fill="#0000000" transform="matrix(0.6330889644666505,0,0,0.6330889644666505,0,55.416524254445974)"/><path d="M306.7178622663514 381.78762974278095L306.7178622663514 390.87939164325473Q306.7178622663514 424.1501735824495 323.80361915052333 442.75591542831046Q340.8612281650344 461.33350940451066 366.58838103510544 461.33350940451066L366.58838103510544 461.33350940451066Q392.31553390517655 461.33350940451066 405.8828070817348 447.2032788347342Q419.4500802582931 433.04490039529685 421.42043113455674 413.25694802367764L421.42043113455674 413.25694802367764L421.50487474353946 412.2717725855458L402.5050627224257 412.2717725855458L402.42061911344297 413.25694802367764Q401.0413735000584 426.7116297215922 392.31553390517655 435.9159831007096Q383.6178421799556 445.12033647982685 366.58838103510544 445.12033647982685L366.58838103510544 445.12033647982685Q348.77077953974987 445.12033647982685 337.34274445742074 430.68047934378046Q325.91470937509155 416.2124743380731 325.91470937509155 390.87939164325473L325.91470937509155 390.87939164325473L325.91470937509155 381.78762974278095Q325.91470937509155 354.28716108407264 337.39904019674253 340.91692299514074Q348.8833710183935 327.54668490620884 366.58838103510544 327.54668490620884L366.58838103510544 327.54668490620884Q384.715609096731 327.54668490620884 393.61033590957834 336.61029893702164Q402.5050627224257 345.67391296783444 402.5050627224257 359.41007336235816L402.5050627224257 359.41007336235816L402.5050627224257 360.42339667015085L421.50487474353946 360.42339667015085L421.50487474353946 359.41007336235816Q421.50487474353946 339.5376773817562 406.92427825918844 325.4355946816406Q392.31553390517655 311.3335119815251 366.58838103510544 311.3335119815251L366.58838103510544 311.3335119815251Q340.8612281650344 311.3335119815251 323.80361915052333 329.9392538273861Q306.7178622663514 348.5449956732472 306.7178622663514 381.78762974278095L306.7178622663514 381.78762974278095Z " fill="#ffffff" transform="matrix(0.6330889644666505,0,0,0.6330889644666505,0,55.416524254445974)"/><path d="M614.111367234778 386.9501252580776L614.111367234778 389.37331861684004Q614.111367234778 407.48236184259156 623.9555902547504 418.97089464172416Q633.7998132747229 430.43779178586794 651.0650659559053 430.43779178586794L651.0650659559053 430.43779178586794Q667.0538149927396 430.43779178586794 675.3402708535076 421.80516544527666Q683.6267267142757 413.1725391046855 683.6267267142757 402.52779685012183L683.6267267142757 402.52779685012183L683.6267267142757 402.15999071530973L669.9313571062701 402.15999071530973L669.9313571062701 402.52779685012183Q669.9313571062701 408.99685769181804 665.4527765235573 413.95142268428776Q660.9525602858556 418.88435202176845 651.0650659559053 418.88435202176845L651.0650659559053 418.88435202176845Q639.5116261918058 418.88435202176845 634.0378054796013 410.338268301133Q628.5639847673968 401.7705489255086 628.5639847673968 389.37331861684004L628.5639847673968 389.37331861684004L628.5639847673968 386.9501252580776Q628.5639847673968 374.53125929442 634.0378054796013 365.98517557378466Q639.5116261918058 357.41745619816027 651.0650659559053 357.41745619816027L651.0650659559053 357.41745619816027Q660.9525602858556 357.41745619816027 665.4527765235573 362.3720211906299Q669.9313571062701 367.30495052811057 669.9313571062701 373.7740113698068L669.9313571062701 373.7740113698068L669.9313571062701 374.1634531596079L683.6267267142757 374.1634531596079L683.6267267142757 373.7740113698068Q683.6267267142757 363.12926911524323 675.3402708535076 354.49664277465195Q667.0538149927396 345.8640164340608 651.0650659559053 345.8640164340608L651.0650659559053 345.8640164340608Q633.7998132747229 345.8640164340608 623.9555902547504 357.3525492331934Q614.111367234778 368.8410820323261 614.111367234778 386.9501252580776L614.111367234778 386.9501252580776ZM695.721057853099 404.58318407407216L695.721057853099 404.58318407407216Q695.721057853099 416.7640578328512 703.7046145440216 423.2114830195585Q711.6881712349443 429.6805438612547 723.1117970691101 429.6805438612547L723.1117970691101 429.6805438612547Q732.9992913990606 429.6805438612547 739.2736313458562 425.8943042381883Q745.5479712926517 422.08642896013305 748.3606064412153 417.13186396766343L748.3606064412153 417.13186396766343Q748.5769629911048 420.18249132110543 749.4640248456518 423.2114830195585Q750.3294510452098 426.2621103730005 751.4112337946573 428.1660480120281L751.4112337946573 428.1660480120281L765.084967747674 428.1660480120281L765.084967747674 426.95445133264695Q763.7219214833701 423.60092480935964 762.9646735587569 419.2305225015916Q762.2074256341435 414.8601201938236 762.2074256341435 409.905555201354L762.2074256341435 409.905555201354L762.2074256341435 373.4062052349947Q762.2074256341435 359.710835626989 754.2455045982098 352.7874260305249Q746.3052192172651 345.8640164340608 731.8526016846462 345.8640164340608L731.8526016846462 345.8640164340608Q717.3999841520273 345.8640164340608 708.9188073963587 352.98214692542547Q700.4376306406901 360.10027741679016 700.4376306406901 369.5983299569393L700.4376306406901 369.5983299569393L700.4376306406901 369.98777174674046L714.5008063835079 369.98777174674046L714.5008063835079 369.5983299569393Q714.5008063835079 364.6437649644697 718.4384955914969 360.87916099639233Q722.3545491444969 357.11455702831495 731.463159894845 357.11455702831495L731.463159894845 357.11455702831495Q740.5934063001821 357.11455702831495 744.3363746132706 361.6580445759946Q748.05770727137 366.17989646868523 748.05770727137 373.4062052349947L748.05770727137 373.4062052349947L748.05770727137 378.8800259471991L729.9486640456186 378.8800259471991Q715.0416977582316 378.8800259471991 705.3921956331598 385.6519859587405Q695.721057853099 392.42394597028203 695.721057853099 404.58318407407216ZM709.8707762158725 403.8259361494589L709.8707762158725 403.8259361494589Q709.8707762158725 396.9890691729506 715.344596928077 392.94320169001685Q720.8184176402814 388.9189698620721 731.463159894845 388.9189698620721L731.463159894845 388.9189698620721L748.05770727137 388.9189698620721L748.05770727137 400.4075026612047Q748.05770727137 406.8765635029009 741.2857472598286 412.65328338495067Q734.513787248287 418.4300032670004 726.1407887675632 418.4300032670004L726.1407887675632 418.4300032670004Q717.7894259418283 418.4300032670004 713.8301010788505 414.5572210239783Q709.8707762158725 410.66280312596723 709.8707762158725 403.8259361494589ZM784.2541580678841 348.15739586288953L784.2541580678841 428.1660480120281L798.4038764306576 428.1660480120281L798.4038764306576 371.87007373077915Q800.6972558594864 366.5477026034973 805.4787356120444 362.9778195303205Q810.2818510195914 359.4079364571437 817.1187179960997 359.4079364571437L817.1187179960997 359.4079364571437Q819.0875626000942 359.4079364571437 820.7751436892323 359.5593860420663Q822.4410891233815 359.710835626989 823.9555849726081 360.01373479683434L823.9555849726081 360.01373479683434L823.9555849726081 346.92416352851933Q823.1983370479948 346.621264358674 821.380942028923 346.2534582238618Q819.5635470098512 345.8640164340608 817.875965920713 345.8640164340608L817.875965920713 345.8640164340608Q811.0390989442047 345.8640164340608 806.084533951735 349.62862040213815Q801.1516046142543 353.39322437021553 798.1009772608123 358.41269632765193L798.1009772608123 358.41269632765193L797.6466285060443 358.41269632765193L797.0408301663538 348.15739586288953L784.2541580678841 348.15739586288953ZM838.1053033353816 311.33351107169585L838.1053033353816 428.1660480120281L852.2550216981552 428.1660480120281L852.2550216981552 311.33351107169585L838.1053033353816 311.33351107169585ZM870.6020571287852 386.9501252580776L870.6020571287852 389.37331861684004Q870.6020571287852 407.48236184259156 880.8573575935476 418.97089464172416Q891.1342937132991 430.43779178586794 908.3130037745258 430.43779178586794L908.3130037745258 430.43779178586794Q925.5133494907412 430.43779178586794 935.7686499555037 418.97089464172416Q946.0455860752553 407.48236184259156 946.0455860752553 389.37331861684004L946.0455860752553 389.37331861684004L946.0455860752553 386.9501252580776Q946.0455860752553 368.8410820323261 935.7686499555037 357.3525492331934Q925.5133494907412 345.8640164340608 908.3130037745258 345.8640164340608L908.3130037745258 345.8640164340608Q891.1342937132991 345.8640164340608 880.8573575935476 357.3525492331934Q870.6020571287852 368.8410820323261 870.6020571287852 386.9501252580776L870.6020571287852 386.9501252580776ZM885.0330390064152 389.37331861684004L885.0330390064152 386.9501252580776Q885.0330390064152 374.53125929442 890.8963015084206 365.98517557378466Q896.7595640104263 357.41745619816027 908.3130037745258 357.41745619816027L908.3130037745258 357.41745619816027Q919.8880791936142 357.41745619816027 925.7297060406308 365.98517557378466Q931.5929685426364 374.53125929442 931.5929685426364 386.9501252580776L931.5929685426364 386.9501252580776L931.5929685426364 389.37331861684004Q931.5929685426364 401.7705489255086 925.7297060406308 410.338268301133Q919.8880791936142 418.88435202176845 908.3130037745258 418.88435202176845L908.3130037745258 418.88435202176845Q896.7595640104263 418.88435202176845 890.8963015084206 410.338268301133Q885.0330390064152 401.7705489255086 885.0330390064152 389.37331861684004L885.0330390064152 389.37331861684004ZM972.74398433162 404.58318407407216L958.5942659688466 404.58318407407216L958.5942659688466 404.9726258638733Q958.5942659688466 416.5260656279728 966.9672644495703 423.4927465344149Q975.3402629302941 430.43779178586794 991.3073763121396 430.43779178586794L991.3073763121396 430.43779178586794Q1007.274489693985 430.43779178586794 1015.2580463849077 423.60092480935964Q1023.2416030758303 416.7640578328512 1023.2416030758303 406.09767992329876L1023.2416030758303 406.09767992329876Q1023.2416030758303 395.4529376687351 1016.2100152044214 389.7627604066412Q1009.1784273330126 384.0509474895582 996.2403056496203 381.0003201361162L996.2403056496203 381.0003201361162Q983.3238196212168 377.97132843766315 978.9101460034709 375.3101428740223Q974.496472385725 372.6489573103813 974.496472385725 368.08383410771285L974.496472385725 368.08383410771285Q974.496472385725 363.51871090504426 978.3259833187693 360.46808355160226Q982.1771299068024 357.41745619816027 990.5501283875262 357.41745619816027L990.5501283875262 357.41745619816027Q998.9014912132611 357.41745619816027 1002.9040873862169 360.7060757564807Q1006.9066835591728 363.9730596598123 1006.9066835591728 369.6632369219062L1006.9066835591728 369.6632369219062L1006.9066835591728 370.35557788155256L1020.9698593019906 370.35557788155256L1020.9698593019906 369.98777174674046Q1020.9698593019906 358.86704508241996 1012.5968608212667 352.37634858573483Q1004.223862340543 345.8640164340608 990.5501283875262 345.8640164340608L990.5501283875262 345.8640164340608Q976.8547587795207 345.8640164340608 968.6764811936974 352.39798424072376Q960.4982036078742 358.9535877023758 960.4982036078742 368.8410820323261L960.4982036078742 368.8410820323261Q960.4982036078742 378.7285763622764 968.1139541639847 384.2456683844588Q975.7080690651063 389.7627604066412 988.6461907484987 392.79175210509425L988.6461907484987 392.79175210509425Q1001.5626767769021 395.84237945853624 1005.457094674913 398.69828591707767Q1009.3298769179353 401.5541923756191 1009.3298769179353 406.8765635029009L1009.3298769179353 406.8765635029009Q1009.3298769179353 412.19893463018275 1004.5051258553993 415.530825498481Q999.6803747928633 418.88435202176845 991.3073763121396 418.88435202176845L991.3073763121396 418.88435202176845Q982.9343778314158 418.88435202176845 977.8499989090125 415.3793759135584Q972.74398433162 411.89603546033743 972.74398433162 404.9726258638733L972.74398433162 404.9726258638733L972.74398433162 404.58318407407216ZM1035.7902829694217 386.9501252580776L1035.7902829694217 389.37331861684004Q1035.7902829694217 407.48236184259156 1045.6561416443828 418.97089464172416Q1055.5003646643554 430.43779178586794 1072.765617345538 430.43779178586794L1072.765617345538 430.43779178586794Q1088.7327307273831 430.43779178586794 1097.0408222431402 421.80516544527666Q1105.3272781039082 413.1725391046855 1105.3272781039082 402.52779685012183L1105.3272781039082 402.52779685012183L1105.3272781039082 402.15999071530973L1091.6319084959027 402.15999071530973L1091.6319084959027 402.52779685012183Q1091.6319084959027 408.99685769181804 1087.15332791319 413.95142268428776Q1082.6531116754882 418.88435202176845 1072.765617345538 418.88435202176845L1072.765617345538 418.88435202176845Q1061.2121775814385 418.88435202176845 1055.738356869234 410.338268301133Q1050.2429005020404 401.7705489255086 1050.2429005020404 389.37331861684004L1050.2429005020404 389.37331861684004L1050.2429005020404 386.9501252580776Q1050.2429005020404 374.53125929442 1055.738356869234 365.98517557378466Q1061.2121775814385 357.41745619816027 1072.765617345538 357.41745619816027L1072.765617345538 357.41745619816027Q1082.6531116754882 357.41745619816027 1087.15332791319 362.3720211906299Q1091.6319084959027 367.30495052811057 1091.6319084959027 373.7740113698068L1091.6319084959027 373.7740113698068L1091.6319084959027 374.1634531596079L1105.3272781039082 374.1634531596079L1105.3272781039082 373.7740113698068Q1105.3272781039082 363.12926911524323 1097.0408222431402 354.49664277465195Q1088.7327307273831 345.8640164340608 1072.765617345538 345.8640164340608L1072.765617345538 345.8640164340608Q1055.5003646643554 345.8640164340608 1045.6561416443828 357.3525492331934Q1035.7902829694217 368.8410820323261 1035.7902829694217 386.9501252580776L1035.7902829694217 386.9501252580776ZM1117.0321674529305 386.9501252580776L1117.0321674529305 389.37331861684004Q1117.0321674529305 407.48236184259156 1127.309103572682 418.97089464172416Q1137.5644040374443 430.43779178586794 1154.76474975366 430.43779178586794L1154.76474975366 430.43779178586794Q1171.9434598148864 430.43779178586794 1182.220395934638 418.97089464172416Q1192.4973320543895 407.48236184259156 1192.4973320543895 389.37331861684004L1192.4973320543895 389.37331861684004L1192.4973320543895 386.9501252580776Q1192.4973320543895 368.8410820323261 1182.220395934638 357.3525492331934Q1171.9434598148864 345.8640164340608 1154.76474975366 345.8640164340608L1154.76474975366 345.8640164340608Q1137.5644040374443 345.8640164340608 1127.309103572682 357.3525492331934Q1117.0321674529305 368.8410820323261 1117.0321674529305 386.9501252580776L1117.0321674529305 386.9501252580776ZM1131.4847849855491 389.37331861684004L1131.4847849855491 386.9501252580776Q1131.4847849855491 374.53125929442 1137.348047487555 365.98517557378466Q1143.2113099895605 357.41745619816027 1154.76474975366 357.41745619816027L1154.76474975366 357.41745619816027Q1166.3181895177595 357.41745619816027 1172.181452019765 365.98517557378466Q1178.0447145217704 374.53125929442 1178.0447145217704 386.9501252580776L1178.0447145217704 386.9501252580776L1178.0447145217704 389.37331861684004Q1178.0447145217704 401.7705489255086 1172.181452019765 410.338268301133Q1166.3181895177595 418.88435202176845 1154.76474975366 418.88435202176845L1154.76474975366 418.88435202176845Q1143.2113099895605 418.88435202176845 1137.348047487555 410.338268301133Q1131.4847849855491 401.7705489255086 1131.4847849855491 389.37331861684004L1131.4847849855491 389.37331861684004ZM1249.9183603950637 451.9003615349068L1249.9183603950637 451.9003615349068L1249.9183603950637 440.8012705255752Q1238.6678198008099 440.8012705255752 1233.3670843285167 434.3971166488459Q1228.0879845112127 428.0145984271055 1230.2948213200857 418.81944505680156L1230.2948213200857 418.81944505680156L1234.102696598141 402.76578905500037Q1235.6171924473674 396.36163517827106 1232.869464263771 391.42870584079026Q1230.1433717351633 386.47414084832064 1222.6790707639752 384.50529624432625L1222.6790707639752 384.50529624432625Q1230.1433717351633 382.53645164033173 1232.869464263771 377.581886647862Q1235.6171924473674 372.6489573103813 1234.102696598141 366.244803433652L1234.102696598141 366.244803433652L1230.2948213200857 350.1911474318508Q1228.0879845112127 340.99599406154687 1233.3670843285167 334.61347583980654Q1238.6678198008099 328.2093219630772 1249.9183603950637 328.2093219630772L1249.9183603950637 328.2093219630772L1249.9183603950637 317.1102309537456Q1232.7180146788482 317.1102309537456 1223.0252412437985 327.75497320830925Q1213.3324678087488 338.42135111786183 1216.1451029573122 350.1911474318508L1216.1451029573122 350.1911474318508L1219.9529782353675 366.244803433652Q1221.8569158743953 374.3798097094974 1217.0970717768262 376.9328169981935Q1212.337227679257 379.48582428688974 1203.8127796136105 379.48582428688974L1203.8127796136105 379.48582428688974L1203.8127796136105 389.52476820176264Q1212.337227679257 389.52476820176264 1217.0970717768262 392.07777549045886Q1221.8569158743953 394.63078277915497 1219.9529782353675 402.76578905500037L1219.9529782353675 402.76578905500037L1216.1451029573122 418.81944505680156Q1213.3324678087488 430.6108770257796 1223.0252412437985 441.2556192803431Q1232.7180146788482 451.9003615349068 1249.9183603950637 451.9003615349068ZM1254.9378323525002 447.6381375020835L1254.9378323525002 461.33350711008916Q1270.4505969795778 454.0206557238239 1283.2372690780476 435.7817985681387Q1296.0023055215283 417.5213057574646 1296.0023055215283 388.9838768270389L1296.0023055215283 388.9838768270389L1296.0023055215283 388.22662890242566Q1296.0023055215283 358.41269632765193 1283.2372690780476 340.80127316664635Q1270.4505969795778 323.18985000564066 1254.9378323525002 315.89863427436444L1254.9378323525002 315.89863427436444L1254.9378323525002 329.59400388237003Q1264.3709779276828 335.37072376441984 1272.7656120633956 349.0228220624475Q1281.1818818540974 362.6749203604752 1281.1818818540974 387.70737318269084L1281.1818818540974 387.70737318269084L1281.1818818540974 389.52476820176264Q1281.1818818540974 413.4754382745308 1272.7656120633956 427.66842794728234Q1264.3709779276828 441.86141762003376 1254.9378323525002 447.6381375020835L1254.9378323525002 447.6381375020835ZM1311.9045119384068 386.9501252580776L1311.9045119384068 389.37331861684004Q1311.9045119384068 407.48236184259156 1321.835277578335 418.97089464172416Q1331.7660432182633 430.43779178586794 1350.3943421637496 430.43779178586794L1350.3943421637496 430.43779178586794Q1361.7963323429267 430.43779178586794 1369.75825337886 425.50486244838726Q1377.6985387598052 420.55029745591753 1381.5064140378604 414.8601201938236L1381.5064140378604 414.8601201938236L1372.376167632523 407.63381142751416Q1368.9577341442691 412.19893463018275 1363.4839134320646 415.530825498481Q1358.01009271986 418.88435202176845 1350.3943421637496 418.88435202176845L1350.3943421637496 418.88435202176845Q1338.0836544750368 418.88435202176845 1332.2203919730314 410.338268301133Q1326.3571294710255 401.7705489255086 1326.3571294710255 389.37331861684004L1326.3571294710255 389.37331861684004L1326.3571294710255 386.9501252580776Q1326.3571294710255 374.53125929442 1331.9174928031857 365.98517557378466Q1337.4562204803574 357.41745619816027 1348.7283967296003 357.41745619816027L1348.7283967296003 357.41745619816027Q1358.01009271986 357.41745619816027 1362.9430220573408 363.51871090504426Q1367.8975870498102 369.5983299569393 1367.8975870498102 378.27422760750846L1367.8975870498102 378.27422760750846L1367.8975870498102 380.09162262658026L1320.5804095889757 380.09162262658026L1320.5804095889757 391.34216322083455L1382.1122123775508 391.34216322083455L1382.1122123775508 385.5654433387848Q1382.1122123775508 367.30495052811057 1373.284865142059 356.59530130858013Q1364.4575179065673 345.8640164340608 1348.1225983899099 345.8640164340608L1348.1225983899099 345.8640164340608Q1331.7660432182633 345.8640164340608 1321.835277578335 357.3525492331934Q1311.9045119384068 368.8410820323261 1311.9045119384068 386.9501252580776L1311.9045119384068 386.9501252580776Z " fill="#ffffff" transform="matrix(0.6330889644666505,0,0,0.6330889644666505,0,55.416524254445974)"/></g></svg>